# xmcd CD database file
#
# Track frame offsets:
#	150
#	26379
#	42366
#	62332
#	89422
#	115155
#	141071
#	159508
#	169007
#	189688
#	214467
#	242503
#	266407
#	289814
#
# Disc length: 4136 seconds
#
# Revision: 3
# Processed by: cddbd v1.5.2PL0 Copyright (c) Steve Scherf et al.
# Submitted via: CDex 1.51
#
DISCID=c210260e
DTITLE=Little Blue - Angels, Horses and Pirates
DYEAR=1997
DGENRE=Americana
TTITLE0=Wait Until You Get Here
TTITLE1=Any Way I Can
TTITLE2=Like It Like That
TTITLE3=Cold Rain
TTITLE4=Liar
TTITLE5=Still Walkin´ In The Rain
TTITLE6=Angel With A Gun
TTITLE7=Noonwine
TTITLE8=Lucky
TTITLE9=House Is Burning
TTITLE10=Church I Need
TTITLE11=Angels, Horses and Pirates
TTITLE12=Cadillac
TTITLE13=Tryin´ To Love Three
EXTD=YEAR: 1997
EXTT0=
EXTT1=
EXTT2=
EXTT3=
EXTT4=
EXTT5=
EXTT6=
EXTT7=
EXTT8=
EXTT9=
EXTT10=
EXTT11=
EXTT12=
EXTT13=
PLAYORDER=
